<svg width="20" height="20" viewBox="0 0 20 20" fill="none" xmlns="http://www.w3.org/2000/svg">
<path d="M20.0001 1C20.0001 0.400001 19.6667 0 19.1667 0H0.833336C0.333334 0 0 0.400001 0 1V3.00001C0 3.60001 0.333334 4.00001 0.833336 4.00001H19.1667C19.6667 4.00001 20.0001 3.60001 20.0001 3.00001V1Z" fill="#1F40E7"/>
<path d="M20.0001 9C20.0001 8.4 19.6667 8 19.1667 8H0.833336C0.333334 8 0 8.4 0 9V11C0 11.6 0.333334 12 0.833336 12H19.1667C19.6667 12 20.0001 11.6 20.0001 11V9Z" fill="#1F40E7"/>
<path d="M20.0001 17C20.0001 16.4 19.6667 16 19.1667 16H0.833336C0.333334 16 0 16.4 0 17V19C0 19.6 0.333334 20 0.833336 20H19.1667C19.6667 20 20.0001 19.6 20.0001 19V17Z" fill="#1F40E7"/>
</svg>
