<svg width="38" height="38" viewBox="0 0 38 38" fill="none" xmlns="http://www.w3.org/2000/svg">
<g clip-path="url(#clip0)">
<path d="M11.3947 4.16512L10.2922 3.38435L10.2543 3.35591L10.1833 3.32747L9.37888 2.94424L9.40255 3.00096C8.6407 2.6886 7.84102 2.46631 6.97033 2.46631C3.11845 2.46631 0 5.70774 0 9.70627C0 13.7048 3.12307 16.9462 6.97033 16.9462C8.20535 16.9462 9.34583 16.5867 10.3536 15.9999C10.0082 19.8707 8.05855 25.5161 0.913277 31.2749C-0.0851638 32.0793 -0.269784 33.5746 0.506367 34.611C0.960623 35.2214 1.63732 35.5338 2.31878 35.5338C2.81085 35.5338 3.30307 35.3682 3.72413 35.037C12.4926 27.9578 14.6835 20.6896 14.9769 15.8345C15.4785 9.62602 13.5952 6.36091 11.8727 4.65749L11.3947 4.16512Z" fill="#1F40E7"/>
<path d="M34.804 4.65719L34.3213 4.16512L33.2234 3.38435L33.1856 3.35591L33.1098 3.32747L32.3054 2.94424L32.3291 3.00096C31.5672 2.6886 30.7628 2.46631 29.8921 2.46631C26.045 2.46631 22.9313 5.70774 22.9313 9.70627C22.9313 13.7048 26.045 16.9462 29.9016 16.9462C31.1366 16.9462 32.2771 16.5867 33.2849 15.9999C32.9443 19.8707 30.9946 25.5161 23.8493 31.2749C22.8461 32.0793 22.6663 33.5746 23.4424 34.611C23.8967 35.2214 24.5734 35.5338 25.2548 35.5338C25.7469 35.5338 26.2391 35.3682 26.6602 35.037C35.4334 27.9578 37.6195 20.6896 37.9177 15.8345C38.4193 9.62587 36.536 6.36076 34.804 4.65719Z" fill="#1F40E7"/>
</g>
<defs>
<clipPath id="clip0">
<rect width="38" height="38" fill="white"/>
</clipPath>
</defs>
</svg>
