<svg width="38" height="38" viewBox="0 0 38 38" fill="none" xmlns="http://www.w3.org/2000/svg">
<g clip-path="url(#clip0)">
<path d="M26.6053 33.8349L27.7078 34.6156L27.7457 34.6441L27.8167 34.6725L28.6211 35.0558L28.5974 34.999C29.3593 35.3114 30.159 35.5337 31.0297 35.5337C34.8815 35.5337 38 32.2923 38 28.2937C38 24.2952 34.8769 21.0538 31.0297 21.0538C29.7947 21.0538 28.6542 21.4133 27.6464 22.0001C27.9918 18.1293 29.9415 12.4839 37.0867 6.72512C38.0852 5.92068 38.2698 4.42541 37.4936 3.389C37.0394 2.77856 36.3627 2.46619 35.6812 2.46619C35.1892 2.46619 34.6969 2.63176 34.2759 2.96303C25.5074 10.0422 23.3165 17.3104 23.0231 22.1655C22.5215 28.374 24.4048 31.6391 26.1273 33.3425L26.6053 33.8349Z" fill="#1F40E7"/>
<path d="M3.19604 33.3428L3.67873 33.8349L4.77663 34.6156L4.81445 34.6441L4.89024 34.6725L5.69467 35.0558L5.671 34.999C6.43286 35.3114 7.2373 35.5337 8.10799 35.5337C11.9551 35.5337 15.0688 32.2923 15.0688 28.2937C15.0688 24.2952 11.9551 21.0538 8.09847 21.0538C6.86344 21.0538 5.72296 21.4133 4.71514 22.0001C5.0558 18.1293 7.00548 12.4839 14.1507 6.72512C15.154 5.92068 15.3338 4.42541 14.5577 3.389C14.1034 2.77856 13.4267 2.46619 12.7452 2.46619C12.2532 2.46619 11.761 2.63176 11.3399 2.96303C2.5667 10.0422 0.380579 17.3104 0.0823567 22.1655C-0.419247 28.3741 1.46403 31.6392 3.19604 33.3428Z" fill="#1F40E7"/>
</g>
<defs>
<clipPath id="clip0">
<rect width="38" height="38" fill="white" transform="translate(38 38) rotate(-180)"/>
</clipPath>
</defs>
</svg>
