<svg width="464" height="511" viewBox="0 0 464 511" fill="none" xmlns="http://www.w3.org/2000/svg">
<path d="M11.786 428.963H92.944V498.535C92.944 501.92 94.027 504.691 96.206 506.857C98.379 509.037 101.157 510.127 104.541 510.127H165.043C168.183 510.127 170.9 509.037 173.195 506.857C175.49 504.691 176.634 501.919 176.634 498.535V428.963H359.598C362.975 428.963 365.754 427.887 367.932 425.707C370.112 423.529 371.194 420.756 371.194 417.371V370.994C371.194 367.629 370.112 364.838 367.932 362.672C365.76 360.492 362.975 359.402 359.598 359.402H176.628V316.648H299.812C348.117 316.648 387.542 301.929 418.105 272.449C448.656 243 463.939 204.959 463.939 158.324C463.939 111.72 448.656 73.678 418.105 44.199C387.548 14.749 348.116 0 299.812 0H104.535C101.15 0 98.378 1.089 96.2 3.256C94.027 5.435 92.938 8.225 92.938 11.591V239.487H11.786C8.40197 239.487 5.62897 240.632 3.45097 242.926C1.27897 245.221 0.188965 247.938 0.188965 251.077V305.055C0.188965 308.44 1.27197 311.213 3.45097 313.391C5.62997 315.571 8.39596 316.647 11.786 316.647H92.944V359.401H11.786C8.40197 359.401 5.62897 360.491 3.45097 362.671C1.27897 364.837 0.188965 367.622 0.188965 370.993V417.37C0.188965 420.755 1.27197 423.528 3.45097 425.706C5.62897 427.887 8.40096 428.963 11.786 428.963ZM176.628 77.179H292.566C318.166 77.179 338.814 84.664 354.519 99.639C370.216 114.615 378.068 134.186 378.068 158.33C378.068 182.486 370.216 202.063 354.519 217.021C338.814 232.009 318.165 239.494 292.566 239.494H176.628V77.179Z" fill="black"/>
</svg>
