<svg width="43" height="43" viewBox="0 0 43 43" fill="none" xmlns="http://www.w3.org/2000/svg">
<path d="M21.5 0C9.62628 0 0 9.62584 0 21.5C0 33.3742 9.62628 43 21.5 43C33.3737 43 43 33.3742 43 21.5C43 9.62584 33.3737 0 21.5 0ZM32.4059 23.8253C33.408 24.8041 34.4682 25.7252 35.3678 26.8052C35.7663 27.2829 36.142 27.7769 36.4279 28.3325C36.8362 29.1247 36.4675 29.9935 35.7584 30.0406L31.3537 30.0397C30.2161 30.1339 29.3108 29.6751 28.5476 28.8973C27.9383 28.2775 27.3731 27.6155 26.7862 26.9745C26.5465 26.7115 26.294 26.4638 25.9931 26.2689C25.3927 25.8783 24.8709 25.998 24.5269 26.6252C24.1763 27.2635 24.0963 27.9709 24.0628 28.6813C24.0149 29.7199 23.7017 29.9913 22.6596 30.0402C20.4328 30.1444 18.32 29.8066 16.3563 28.684C14.624 27.6938 13.2832 26.2962 12.1148 24.7139C9.83963 21.6293 8.0972 18.2439 6.5316 14.7612C6.17924 13.9769 6.43702 13.5572 7.3023 13.5409C8.73989 13.5132 10.1775 13.5167 11.6151 13.5396C12.2001 13.5488 12.5872 13.8836 12.812 14.4357C13.5889 16.347 14.5413 18.1656 15.7347 19.8521C16.0527 20.3013 16.3774 20.7491 16.8397 21.0663C17.35 21.4164 17.7389 21.3007 17.9795 20.7311C18.1335 20.369 18.1999 19.9819 18.2333 19.5939C18.3477 18.265 18.3613 16.9365 18.1634 15.6128C18.0402 14.7845 17.5744 14.2496 16.7487 14.093C16.3281 14.0134 16.3897 13.8577 16.5943 13.6175C16.9493 13.2022 17.2818 12.9453 17.9465 12.9453L22.9231 12.9444C23.7074 13.0984 23.8834 13.4503 23.9898 14.2404L23.9942 19.7708C23.985 20.0765 24.1477 20.9827 24.6967 21.1828C25.1366 21.328 25.427 20.9752 25.69 20.6967C26.8835 19.4303 27.7338 17.9355 28.4953 16.3884C28.8313 15.7061 29.1212 15.0001 29.4028 14.2927C29.6122 13.7697 29.9377 13.5123 30.528 13.5211L35.3203 13.5269C35.4615 13.5269 35.6049 13.5282 35.7448 13.5524C36.5524 13.6905 36.7737 14.038 36.5238 14.8259C36.1306 16.0637 35.3665 17.0949 34.6195 18.1286C33.8189 19.2354 32.9651 20.3035 32.1724 21.4151C31.4439 22.4313 31.5015 22.9429 32.4059 23.8253Z" fill="#1F40E7"/>
</svg>
