<svg width="43" height="43" viewBox="0 0 43 43" fill="none" xmlns="http://www.w3.org/2000/svg">
<path d="M25.4815 21.5C25.4815 23.699 23.699 25.4815 21.5 25.4815C19.3011 25.4815 17.5186 23.699 17.5186 21.5C17.5186 19.301 19.3011 17.5185 21.5 17.5185C23.699 17.5185 25.4815 19.301 25.4815 21.5Z" fill="#1F40E7"/>
<path d="M31.3436 14.0529C31.1412 13.5046 30.8184 13.0084 30.399 12.601C29.9917 12.1816 29.4957 11.8588 28.9471 11.6565C28.5022 11.4837 27.8338 11.278 26.6027 11.222C25.271 11.1612 24.8717 11.1481 21.5002 11.1481C18.1284 11.1481 17.7291 11.1609 16.3977 11.2216C15.1666 11.278 14.4979 11.4837 14.0533 11.6565C13.5047 11.8588 13.0084 12.1816 12.6014 12.601C12.182 13.0084 11.8592 13.5043 11.6565 14.0529C11.4837 14.4978 11.278 15.1666 11.222 16.3976C11.1613 17.7291 11.1482 18.1283 11.1482 21.5002C11.1482 24.8717 11.1613 25.2709 11.222 26.6027C11.278 27.8338 11.4837 28.5022 11.6565 28.9471C11.8592 29.4957 12.1817 29.9916 12.6011 30.399C13.0084 30.8184 13.5043 31.1412 14.0529 31.3435C14.4979 31.5166 15.1666 31.7223 16.3977 31.7784C17.7291 31.8391 18.1281 31.8519 21.4999 31.8519C24.872 31.8519 25.2713 31.8391 26.6024 31.7784C27.8335 31.7223 28.5022 31.5166 28.9471 31.3435C30.0484 30.9187 30.9188 30.0483 31.3436 28.9471C31.5164 28.5022 31.722 27.8338 31.7784 26.6027C31.8391 25.2709 31.8519 24.8717 31.8519 21.5002C31.8519 18.1283 31.8391 17.7291 31.7784 16.3976C31.7224 15.1666 31.5167 14.4978 31.3436 14.0529ZM21.5002 27.9838C17.919 27.9838 15.0159 25.081 15.0159 21.4998C15.0159 17.9186 17.919 15.0159 21.5002 15.0159C25.0811 15.0159 27.9841 17.9186 27.9841 21.4998C27.9841 25.081 25.0811 27.9838 21.5002 27.9838ZM28.2405 16.2748C27.4037 16.2748 26.7252 15.5964 26.7252 14.7595C26.7252 13.9227 27.4037 13.2443 28.2405 13.2443C29.0773 13.2443 29.7558 13.9227 29.7558 14.7595C29.7555 15.5964 29.0773 16.2748 28.2405 16.2748Z" fill="#1F40E7"/>
<path d="M21.5 0C9.62769 0 0 9.62769 0 21.5C0 33.3723 9.62769 43 21.5 43C33.3723 43 43 33.3723 43 21.5C43 9.62769 33.3723 0 21.5 0ZM33.7712 26.5899C33.7115 27.9041 33.5025 28.8014 33.1974 29.5868C32.5561 31.2451 31.2451 32.5561 29.5868 33.1974C28.8017 33.5025 27.9041 33.7112 26.5902 33.7712C25.2737 33.8313 24.8531 33.8457 21.5003 33.8457C18.1472 33.8457 17.7269 33.8313 16.4101 33.7712C15.0962 33.7112 14.1986 33.5025 13.4136 33.1974C12.5895 32.8874 11.8434 32.4016 11.2267 31.7733C10.5988 31.1569 10.1129 30.4105 9.80288 29.5868C9.49778 28.8017 9.2888 27.9041 9.2291 26.5902C9.1684 25.2734 9.1543 24.8528 9.1543 21.5C9.1543 18.1472 9.1684 17.7266 9.22877 16.4101C9.28848 15.0959 9.49712 14.1986 9.80222 13.4132C10.1122 12.5895 10.5984 11.8431 11.2267 11.2267C11.8431 10.5984 12.5895 10.1126 13.4132 9.80255C14.1986 9.49745 15.0959 9.2888 16.4101 9.22877C17.7266 9.16873 18.1472 9.1543 21.5 9.1543C24.8528 9.1543 25.2734 9.16873 26.5899 9.2291C27.9041 9.2888 28.8014 9.49745 29.5868 9.80222C30.4105 10.1122 31.1569 10.5984 31.7737 11.2267C32.4016 11.8434 32.8878 12.5895 33.1974 13.4132C33.5029 14.1986 33.7115 15.0959 33.7716 16.4101C33.8316 17.7266 33.8457 18.1472 33.8457 21.5C33.8457 24.8528 33.8316 25.2734 33.7712 26.5899Z" fill="#1F40E7"/>
</svg>
