<svg width="43" height="43" viewBox="0 0 43 43" fill="none" xmlns="http://www.w3.org/2000/svg">
<path d="M21.5 0C9.64495 0 0 9.64495 0 21.5C0 33.3542 9.64495 43 21.5 43C33.3542 43 43 33.3542 43 21.5C43 9.64495 33.3559 0 21.5 0ZM26.8469 22.2569H23.349C23.349 27.8454 23.349 34.7242 23.349 34.7242H18.1658C18.1658 34.7242 18.1658 27.9121 18.1658 22.2569H15.7019V17.8506H18.1658V15.0005C18.1658 12.9592 19.1357 9.76966 23.3966 9.76966L27.2374 9.78438V14.0617C27.2374 14.0617 24.9035 14.0617 24.4497 14.0617C23.9959 14.0617 23.3507 14.2886 23.3507 15.262V17.8514H27.2998L26.8469 22.2569Z" fill="#fff"/>
</svg>
